<svg width="43" height="42" viewBox="0 0 43 42" fill="none" xmlns="http://www.w3.org/2000/svg">
<path d="M36.8038 5.70118C34.8347 3.73303 32.1647 2.62741 29.3807 2.62741C26.5968 2.62741 23.9267 3.73303 21.9577 5.70118L10.457 17.0625C10.2124 17.3056 10.0185 17.5947 9.88646 17.9132C9.75438 18.2317 9.68676 18.5733 9.6875 18.9181V30.957L4.82141 35.8214C4.69946 35.9434 4.60273 36.0881 4.53673 36.2475C4.47074 36.4068 4.43677 36.5775 4.43677 36.75C4.43677 36.9225 4.47074 37.0932 4.53673 37.2526C4.60273 37.4119 4.69946 37.5567 4.82141 37.6786C5.06768 37.9249 5.40171 38.0632 5.75 38.0632C5.92246 38.0632 6.09322 38.0293 6.25255 37.9633C6.41188 37.8973 6.55665 37.8005 6.67859 37.6786L11.5447 32.8125H23.5836C23.928 32.8131 24.2691 32.7455 24.5872 32.6137C24.9054 32.482 25.1944 32.2886 25.4375 32.0447L36.7955 20.5603C37.7726 19.5857 38.5479 18.428 39.0772 17.1534C39.6064 15.8789 39.8792 14.5125 39.88 13.1324C39.8807 11.7524 39.6094 10.3857 39.0816 9.1106C38.5537 7.83547 37.7797 6.67691 36.8038 5.70118ZM23.8084 7.55672C25.2582 6.1062 27.2168 5.27854 29.2675 5.24975C31.3182 5.22096 33.2992 5.99332 34.7892 7.40257C36.2793 8.81182 37.1608 10.7468 37.2462 12.7959C37.3317 14.845 36.6143 16.8466 35.2468 18.375H25.9838L31.6194 12.7411C31.8657 12.4948 32.004 12.1608 32.004 11.8125C32.004 11.4642 31.8657 11.1302 31.6194 10.8839C31.3731 10.6376 31.0391 10.4993 30.6908 10.4993C30.3425 10.4993 30.0085 10.6376 29.7622 10.8839L20.1875 20.457V11.1349L23.8084 7.55672ZM12.3125 18.9246L17.5625 13.7288V23.0803L12.3125 28.3303V18.9246ZM23.5836 30.1875H14.1697L23.3572 21H32.6661L23.5836 30.1875Z" fill="white"/>
</svg>
